<svg width="382" height="95" viewBox="0 0 382 95" fill="none" xmlns="http://www.w3.org/2000/svg">
<path d="M369.012 28.165C372.678 28.165 375.648 29.2833 377.922 31.52C380.195 33.72 381.332 36.91 381.332 41.09V58.855H376.382V41.805C376.382 38.7983 375.63 36.5067 374.127 34.93C372.623 33.3167 370.57 32.51 367.967 32.51C365.327 32.51 363.218 33.335 361.642 34.985C360.102 36.635 359.332 39.0367 359.332 42.19V58.855H354.327V28.715H359.332V33.005C360.322 31.465 361.66 30.2733 363.347 29.43C365.07 28.5867 366.958 28.165 369.012 28.165Z" fill="white"/>
<path d="M332.291 59.35C329.468 59.35 326.901 58.7083 324.591 57.425C322.318 56.1417 320.521 54.3267 319.201 51.98C317.918 49.5967 317.276 46.8467 317.276 43.73C317.276 40.65 317.936 37.9367 319.256 35.59C320.613 33.2067 322.446 31.3917 324.756 30.145C327.066 28.8617 329.651 28.22 332.511 28.22C335.371 28.22 337.956 28.8617 340.266 30.145C342.576 31.3917 344.391 33.1883 345.711 35.535C347.068 37.8817 347.746 40.6133 347.746 43.73C347.746 46.8467 347.049 49.5967 345.656 51.98C344.299 54.3267 342.448 56.1417 340.101 57.425C337.754 58.7083 335.151 59.35 332.291 59.35ZM332.291 54.95C334.088 54.95 335.774 54.5283 337.351 53.685C338.928 52.8417 340.193 51.5767 341.146 49.89C342.136 48.2033 342.631 46.15 342.631 43.73C342.631 41.31 342.154 39.2567 341.201 37.57C340.248 35.8833 339.001 34.6367 337.461 33.83C335.921 32.9867 334.253 32.565 332.456 32.565C330.623 32.565 328.936 32.9867 327.396 33.83C325.893 34.6367 324.683 35.8833 323.766 37.57C322.849 39.2567 322.391 41.31 322.391 43.73C322.391 46.1867 322.831 48.2583 323.711 49.945C324.628 51.6317 325.838 52.8967 327.341 53.74C328.844 54.5467 330.494 54.95 332.291 54.95Z" fill="white"/>
<path d="M298.726 28.165C301.073 28.165 303.163 28.66 304.996 29.65C306.829 30.6033 308.278 32.0517 309.341 33.995C310.404 35.9383 310.936 38.3033 310.936 41.09V58.855H305.986V41.805C305.986 38.7983 305.234 36.5067 303.731 34.93C302.264 33.3167 300.266 32.51 297.736 32.51C295.133 32.51 293.061 33.3533 291.521 35.04C289.981 36.69 289.211 39.0917 289.211 42.245V58.855H284.261V41.805C284.261 38.7983 283.509 36.5067 282.006 34.93C280.539 33.3167 278.541 32.51 276.011 32.51C273.408 32.51 271.336 33.3533 269.796 35.04C268.256 36.69 267.486 39.0917 267.486 42.245V58.855H262.481V28.715H267.486V33.06C268.476 31.4833 269.796 30.2733 271.446 29.43C273.133 28.5867 274.984 28.165 277.001 28.165C279.531 28.165 281.768 28.7333 283.711 29.87C285.654 31.0067 287.103 32.675 288.056 34.875C288.899 32.7483 290.293 31.0983 292.236 29.925C294.179 28.7517 296.343 28.165 298.726 28.165Z" fill="white"/>
<path d="M251.531 23.82C250.577 23.82 249.771 23.49 249.111 22.83C248.451 22.17 248.121 21.3633 248.121 20.41C248.121 19.4567 248.451 18.65 249.111 17.99C249.771 17.33 250.577 17 251.531 17C252.447 17 253.217 17.33 253.841 17.99C254.501 18.65 254.831 19.4567 254.831 20.41C254.831 21.3633 254.501 22.17 253.841 22.83C253.217 23.49 252.447 23.82 251.531 23.82ZM253.951 28.715V58.855H248.946V28.715H253.951Z" fill="white"/>
<path d="M209.908 43.675C209.908 40.595 210.531 37.9 211.778 35.59C213.024 33.2433 214.729 31.4283 216.893 30.145C219.093 28.8617 221.531 28.22 224.208 28.22C226.848 28.22 229.139 28.7883 231.083 29.925C233.026 31.0617 234.474 32.4917 235.428 34.215V28.715H240.488V58.855H235.428V53.245C234.438 55.005 232.953 56.4717 230.973 57.645C229.029 58.7817 226.756 59.35 224.153 59.35C221.476 59.35 219.056 58.69 216.893 57.37C214.729 56.05 213.024 54.1983 211.778 51.815C210.531 49.4317 209.908 46.7183 209.908 43.675ZM235.428 43.73C235.428 41.4567 234.969 39.4767 234.053 37.79C233.136 36.1033 231.889 34.82 230.313 33.94C228.773 33.0233 227.068 32.565 225.198 32.565C223.328 32.565 221.623 33.005 220.083 33.885C218.543 34.765 217.314 36.0483 216.398 37.735C215.481 39.4217 215.023 41.4017 215.023 43.675C215.023 45.985 215.481 48.0017 216.398 49.725C217.314 51.4117 218.543 52.7133 220.083 53.63C221.623 54.51 223.328 54.95 225.198 54.95C227.068 54.95 228.773 54.51 230.313 53.63C231.889 52.7133 233.136 51.4117 234.053 49.725C234.969 48.0017 235.428 46.0033 235.428 43.73Z" fill="white"/>
<path d="M203.29 20.795V58.855H198.285V30.475L185.635 58.855H182.115L169.41 30.42V58.855H164.405V20.795H169.795L183.875 52.255L197.955 20.795H203.29Z" fill="white"/>
<path d="M134.229 33.61C135.109 31.8867 136.356 30.5483 137.969 29.595C139.619 28.6417 141.617 28.165 143.964 28.165V33.335H142.644C137.034 33.335 134.229 36.3783 134.229 42.465V58.855H129.224V28.715H134.229V33.61Z" fill="white"/>
<path d="M118.274 23.82C117.32 23.82 116.514 23.49 115.854 22.83C115.194 22.17 114.864 21.3633 114.864 20.41C114.864 19.4567 115.194 18.65 115.854 17.99C116.514 17.33 117.32 17 118.274 17C119.19 17 119.96 17.33 120.584 17.99C121.244 18.65 121.574 19.4567 121.574 20.41C121.574 21.3633 121.244 22.17 120.584 22.83C119.96 23.49 119.19 23.82 118.274 23.82ZM120.694 28.715V58.855H115.689V28.715H120.694Z" fill="white"/>
<path d="M107.157 58.855H102.152L82.0221 28.33V58.855H77.0171V20.465H82.0221L102.152 50.935V20.465H107.157V58.855Z" fill="white"/>
<path d="M376.004 75.5934C376.357 74.5331 376.985 73.7291 377.886 73.1813C378.787 72.6159 379.936 72.3331 381.332 72.3331V73.5789H380.934C379.521 73.5789 378.345 73.9854 377.409 74.7982C376.472 75.5934 376.004 76.901 376.004 78.7211V87.0175H374.811V72.6247H376.004V75.5934Z" fill="white"/>
<path d="M371.207 78.8536C371.207 79.4898 371.189 79.9669 371.154 80.2849H358.722C358.758 81.5749 359.04 82.6617 359.57 83.5452C360.101 84.4287 360.799 85.0914 361.664 85.5331C362.53 85.9749 363.476 86.1958 364.501 86.1958C365.914 86.1958 367.098 85.8512 368.052 85.1621C369.007 84.4552 369.607 83.501 369.855 82.2994H371.101C370.818 83.7661 370.093 84.9588 368.927 85.8777C367.761 86.7789 366.285 87.2295 364.501 87.2295C363.158 87.2295 361.956 86.9291 360.896 86.3283C359.835 85.7275 359.005 84.8705 358.404 83.7572C357.803 82.6263 357.503 81.3098 357.503 79.8078C357.503 78.3058 357.794 76.9982 358.378 75.8849C358.978 74.7717 359.809 73.9235 360.869 73.3404C361.929 72.7396 363.14 72.4392 364.501 72.4392C365.879 72.4392 367.072 72.7396 368.079 73.3404C369.104 73.9235 369.881 74.7098 370.411 75.6994C370.941 76.6713 371.207 77.7227 371.207 78.8536ZM370.014 79.3042C370.067 78.0319 369.837 76.954 369.325 76.0705C368.83 75.187 368.149 74.5331 367.284 74.109C366.418 73.6673 365.481 73.4464 364.474 73.4464C363.467 73.4464 362.53 73.6673 361.664 74.109C360.816 74.5331 360.118 75.187 359.57 76.0705C359.04 76.954 358.758 78.0319 358.722 79.3042H370.014Z" fill="white"/>
<path d="M348.224 72.3331C349.939 72.3331 351.334 72.8633 352.412 73.9235C353.49 74.9661 354.029 76.5211 354.029 78.5886V87.0175H352.863V78.6681C352.863 76.954 352.43 75.6464 351.564 74.7452C350.698 73.8263 349.523 73.3669 348.039 73.3669C346.484 73.3669 345.238 73.8617 344.302 74.8512C343.383 75.8408 342.923 77.3074 342.923 79.2512V87.0175H341.73V72.6247H342.923V75.6729C343.33 74.595 344.001 73.7733 344.938 73.2078C345.892 72.6247 346.988 72.3331 348.224 72.3331Z" fill="white"/>
<path d="M330.098 72.4392C331.618 72.4392 332.908 72.8102 333.968 73.5524C335.029 74.2769 335.771 75.2135 336.195 76.3621V72.6247H337.388V87.4681C337.388 88.7934 337.096 89.9508 336.513 90.9404C335.93 91.9476 335.143 92.7163 334.154 93.2464C333.164 93.7942 332.06 94.0681 330.841 94.0681C329.038 94.0681 327.545 93.6351 326.361 92.7693C325.177 91.9034 324.4 90.7372 324.029 89.2705H325.221C325.575 90.4191 326.237 91.3291 327.209 92.0006C328.181 92.6898 329.392 93.0343 330.841 93.0343C331.848 93.0343 332.758 92.8046 333.571 92.3452C334.384 91.9034 335.02 91.2584 335.479 90.4102C335.956 89.5797 336.195 88.599 336.195 87.4681V83.2536C335.771 84.4022 335.02 85.3564 333.942 86.1163C332.882 86.8584 331.6 87.2295 330.098 87.2295C328.755 87.2295 327.554 86.9291 326.494 86.3283C325.451 85.7098 324.629 84.844 324.029 83.7307C323.445 82.5998 323.154 81.2922 323.154 79.8078C323.154 78.3235 323.445 77.0247 324.029 75.9115C324.629 74.7982 325.451 73.9412 326.494 73.3404C327.554 72.7396 328.755 72.4392 330.098 72.4392ZM336.195 79.8078C336.195 78.5532 335.93 77.4488 335.4 76.4946C334.887 75.5227 334.18 74.7805 333.279 74.2681C332.378 73.738 331.371 73.4729 330.257 73.4729C329.091 73.4729 328.066 73.7291 327.183 74.2416C326.299 74.7364 325.61 75.4608 325.115 76.4151C324.62 77.3693 324.373 78.5002 324.373 79.8078C324.373 81.1155 324.62 82.2464 325.115 83.2006C325.61 84.1548 326.299 84.8882 327.183 85.4006C328.084 85.9131 329.109 86.1693 330.257 86.1693C331.371 86.1693 332.378 85.9131 333.279 85.4006C334.198 84.8705 334.914 84.1283 335.426 83.1741C335.939 82.2022 336.195 81.0801 336.195 79.8078Z" fill="white"/>
<path d="M318.94 69.4175C318.658 69.4175 318.419 69.3291 318.225 69.1524C318.03 68.958 317.933 68.7018 317.933 68.3837C317.933 68.0833 318.03 67.836 318.225 67.6416C318.419 67.4472 318.658 67.35 318.94 67.35C319.223 67.35 319.462 67.4472 319.656 67.6416C319.85 67.836 319.948 68.0833 319.948 68.3837C319.948 68.7018 319.85 68.958 319.656 69.1524C319.462 69.3291 319.223 69.4175 318.94 69.4175ZM319.523 72.6247V87.0175H318.331V72.6247H319.523Z" fill="white"/>
<path d="M309.953 87.2295C308.345 87.2295 307.028 86.8761 306.004 86.1693C304.996 85.4625 304.431 84.4552 304.307 83.1476H305.526C305.615 84.0841 306.039 84.8263 306.799 85.3741C307.576 85.9219 308.628 86.1958 309.953 86.1958C311.048 86.1958 311.914 85.9219 312.551 85.3741C313.204 84.8086 313.531 84.1195 313.531 83.3066C313.531 82.7412 313.355 82.2817 313.001 81.9283C312.665 81.5572 312.241 81.2745 311.729 81.0801C311.216 80.8858 310.518 80.6737 309.635 80.444C308.575 80.1613 307.718 79.8874 307.064 79.6223C306.41 79.3396 305.853 78.9243 305.394 78.3765C304.934 77.8287 304.705 77.0954 304.705 76.1765C304.705 75.505 304.908 74.8866 305.314 74.3211C305.721 73.738 306.286 73.2785 307.011 72.9428C307.735 72.607 308.557 72.4392 309.476 72.4392C310.978 72.4392 312.188 72.8191 313.107 73.5789C314.044 74.3211 314.547 75.3548 314.618 76.6801H313.425C313.372 75.7259 313.001 74.9484 312.312 74.3476C311.623 73.7468 310.669 73.4464 309.449 73.4464C308.424 73.4464 307.576 73.7115 306.905 74.2416C306.233 74.7717 305.897 75.4167 305.897 76.1765C305.897 76.848 306.083 77.3958 306.454 77.8199C306.843 78.2263 307.311 78.5444 307.859 78.7741C308.424 78.9862 309.167 79.2159 310.085 79.4633C311.093 79.7283 311.897 79.9934 312.497 80.2584C313.116 80.5058 313.637 80.8769 314.061 81.3717C314.485 81.8488 314.697 82.4938 314.697 83.3066C314.697 84.0488 314.494 84.7203 314.088 85.3211C313.681 85.9219 313.116 86.3902 312.391 86.7259C311.667 87.0617 310.854 87.2295 309.953 87.2295Z" fill="white"/>
<path d="M301.551 78.8536C301.551 79.4898 301.533 79.9669 301.498 80.2849H289.066C289.102 81.5749 289.384 82.6617 289.914 83.5452C290.445 84.4287 291.143 85.0914 292.008 85.5331C292.874 85.9749 293.82 86.1958 294.845 86.1958C296.258 86.1958 297.442 85.8512 298.396 85.1621C299.351 84.4552 299.951 83.501 300.199 82.2994H301.445C301.162 83.7661 300.437 84.9588 299.271 85.8777C298.105 86.7789 296.629 87.2295 294.845 87.2295C293.502 87.2295 292.3 86.9291 291.24 86.3283C290.179 85.7275 289.349 84.8705 288.748 83.7572C288.147 82.6263 287.847 81.3098 287.847 79.8078C287.847 78.3058 288.139 76.9982 288.722 75.8849C289.322 74.7717 290.153 73.9235 291.213 73.3404C292.273 72.7396 293.484 72.4392 294.845 72.4392C296.223 72.4392 297.416 72.7396 298.423 73.3404C299.448 73.9235 300.225 74.7098 300.755 75.6994C301.285 76.6713 301.551 77.7227 301.551 78.8536ZM300.358 79.3042C300.411 78.0319 300.181 76.954 299.669 76.0705C299.174 75.187 298.494 74.5331 297.628 74.109C296.762 73.6673 295.825 73.4464 294.818 73.4464C293.811 73.4464 292.874 73.6673 292.008 74.109C291.16 74.5331 290.462 75.187 289.914 76.0705C289.384 76.954 289.102 78.0319 289.066 79.3042H300.358Z" fill="white"/>
<path d="M275.148 68.4102C278.293 68.4102 280.714 69.2319 282.41 70.8753C284.124 72.5187 284.981 74.807 284.981 77.7404C284.981 80.6737 284.124 82.9532 282.41 84.5789C280.714 86.2046 278.293 87.0175 275.148 87.0175H269.926V68.4102H275.148ZM275.148 86.0103C277.957 86.0103 280.096 85.2858 281.562 83.8368C283.029 82.3701 283.762 80.338 283.762 77.7404C283.762 75.1251 283.029 73.0841 281.562 71.6175C280.096 70.1508 277.957 69.4175 275.148 69.4175H271.119V86.0103H275.148Z" fill="white"/>
<path d="M255.032 73.6584V83.1741C255.032 84.2343 255.227 84.9677 255.615 85.3741C256.004 85.7629 256.693 85.9572 257.683 85.9572H259.3V87.0175H257.497C256.243 87.0175 255.315 86.7259 254.714 86.1428C254.131 85.542 253.84 84.5524 253.84 83.1741V73.6584H251.666V72.6247H253.84V68.9669H255.032V72.6247H259.3V73.6584H255.032Z" fill="white"/>
<path d="M236.052 79.8078C236.052 78.3058 236.343 76.9982 236.926 75.8849C237.527 74.7717 238.349 73.9235 239.391 73.3404C240.452 72.7396 241.662 72.4392 243.023 72.4392C244.825 72.4392 246.301 72.8898 247.449 73.791C248.615 74.6922 249.34 75.9026 249.623 77.4223H248.377C248.147 76.1853 247.546 75.2135 246.574 74.5066C245.62 73.7998 244.436 73.4464 243.023 73.4464C241.962 73.4464 240.999 73.6849 240.133 74.1621C239.268 74.6215 238.57 75.3372 238.039 76.309C237.527 77.2633 237.271 78.4295 237.271 79.8078C237.271 81.2038 237.527 82.3789 238.039 83.3331C238.57 84.2874 239.268 85.003 240.133 85.4801C240.999 85.9572 241.962 86.1958 243.023 86.1958C244.436 86.1958 245.62 85.8424 246.574 85.1355C247.546 84.4287 248.147 83.4568 248.377 82.2199H249.623C249.34 83.7219 248.615 84.9323 247.449 85.8512C246.283 86.7701 244.807 87.2295 243.023 87.2295C241.662 87.2295 240.452 86.9291 239.391 86.3283C238.349 85.7275 237.527 84.8705 236.926 83.7572C236.343 82.6263 236.052 81.3098 236.052 79.8078Z" fill="white"/>
<path d="M232.445 72.6247V87.0175H231.253V83.8898C230.846 84.9854 230.166 85.8247 229.212 86.4078C228.275 86.9733 227.197 87.256 225.978 87.256C224.264 87.256 222.859 86.7348 221.763 85.6922C220.685 84.6319 220.146 83.0681 220.146 81.0006V72.6247H221.313V80.9211C221.313 82.6352 221.746 83.9516 222.612 84.8705C223.477 85.7717 224.653 86.2223 226.137 86.2223C227.692 86.2223 228.929 85.7275 229.848 84.738C230.784 83.7484 231.253 82.2817 231.253 80.338V72.6247H232.445Z" fill="white"/>
<path d="M201.702 79.8078C201.702 78.3235 201.994 77.0247 202.577 75.9114C203.178 74.7982 204 73.9412 205.042 73.3404C206.102 72.7396 207.304 72.4392 208.647 72.4392C210.114 72.4392 211.386 72.8102 212.464 73.5524C213.542 74.2769 214.302 75.2223 214.743 76.3886V67.403H215.936V87.0175H214.743V83.2006C214.319 84.3845 213.577 85.3564 212.517 86.1163C211.457 86.8584 210.167 87.2295 208.647 87.2295C207.304 87.2295 206.102 86.9291 205.042 86.3283C204 85.7098 203.178 84.844 202.577 83.7307C201.994 82.5998 201.702 81.2922 201.702 79.8078ZM214.743 79.8078C214.743 78.5532 214.478 77.4488 213.948 76.4946C213.436 75.5227 212.729 74.7805 211.828 74.2681C210.926 73.738 209.919 73.4729 208.806 73.4729C207.64 73.4729 206.615 73.7291 205.731 74.2416C204.848 74.7363 204.159 75.4608 203.664 76.4151C203.169 77.3693 202.922 78.5002 202.922 79.8078C202.922 81.1155 203.169 82.2464 203.664 83.2006C204.159 84.1548 204.848 84.8882 205.731 85.4006C206.633 85.9131 207.657 86.1693 208.806 86.1693C209.919 86.1693 210.926 85.9131 211.828 85.4006C212.747 84.8705 213.462 84.1283 213.975 83.1741C214.487 82.2022 214.743 81.0801 214.743 79.8078Z" fill="white"/>
<path d="M191.696 87.2295C190.353 87.2295 189.142 86.9291 188.064 86.3283C186.986 85.7275 186.138 84.8705 185.52 83.7572C184.919 82.6263 184.618 81.3098 184.618 79.8078C184.618 78.3235 184.928 77.0247 185.546 75.9115C186.165 74.7805 187.013 73.9235 188.091 73.3404C189.186 72.7396 190.406 72.4392 191.749 72.4392C193.091 72.4392 194.302 72.7396 195.38 73.3404C196.458 73.9235 197.297 74.7717 197.898 75.8849C198.516 76.9982 198.826 78.3058 198.826 79.8078C198.826 81.3098 198.516 82.6263 197.898 83.7572C197.279 84.8705 196.422 85.7275 195.327 86.3283C194.249 86.9291 193.038 87.2295 191.696 87.2295ZM191.696 86.1693C192.738 86.1693 193.71 85.9396 194.611 85.4801C195.53 85.003 196.263 84.2874 196.811 83.3331C197.359 82.3789 197.633 81.2038 197.633 79.8078C197.633 78.4295 197.359 77.2633 196.811 76.309C196.263 75.3548 195.539 74.648 194.638 74.1886C193.736 73.7115 192.765 73.4729 191.722 73.4729C190.679 73.4729 189.708 73.7115 188.806 74.1886C187.923 74.648 187.207 75.3548 186.659 76.309C186.112 77.2633 185.838 78.4295 185.838 79.8078C185.838 81.2038 186.103 82.3789 186.633 83.3331C187.181 84.2874 187.896 85.003 188.78 85.4801C189.681 85.9396 190.653 86.1693 191.696 86.1693Z" fill="white"/>
<path d="M177.287 75.5934C177.64 74.5331 178.267 73.7291 179.168 73.1813C180.07 72.6159 181.218 72.3331 182.614 72.3331V73.5789H182.217C180.803 73.5789 179.628 73.9854 178.691 74.7982C177.755 75.5934 177.287 76.901 177.287 78.7211V87.0175H176.094V72.6247H177.287V75.5934Z" fill="white"/>
<path d="M172.889 73.6584C172.889 75.3018 172.377 76.5829 171.352 77.5018C170.327 78.403 168.807 78.8536 166.793 78.8536H162.817V87.0175H161.624V68.4102H166.793C168.843 68.4102 170.371 68.8874 171.378 69.8416C172.385 70.7781 172.889 72.0504 172.889 73.6584ZM166.793 77.7934C170.062 77.7934 171.696 76.4151 171.696 73.6584C171.696 72.2978 171.308 71.2641 170.53 70.5572C169.753 69.8327 168.507 69.4705 166.793 69.4705H162.817V77.7934H166.793Z" fill="white"/>
<rect x="30.5471" width="13" height="53" rx="5" transform="rotate(35.1951 30.5471 0)" fill="url(#paint0_linear_48_6922)"/>
<rect x="47.7083" y="12.1036" width="13" height="53" rx="5" transform="rotate(35.1951 47.7083 12.1036)" fill="url(#paint1_linear_48_6922)"/>
<defs>
<linearGradient id="paint0_linear_48_6922" x1="37.0471" y1="0" x2="37.0471" y2="53" gradientUnits="userSpaceOnUse">
<stop stop-color="#352E81" stop-opacity="0"/>
<stop offset="1" stop-color="#8953E7"/>
</linearGradient>
<linearGradient id="paint1_linear_48_6922" x1="54.2083" y1="65.1036" x2="54.2083" y2="12.1036" gradientUnits="userSpaceOnUse">
<stop stop-color="#24A2E1"/>
<stop offset="1" stop-color="#14337B" stop-opacity="0"/>
</linearGradient>
</defs>
</svg>
